# AST/ASF file generated using VICON BodyLanguage
# -----------------------------------------------
:version 1.10
:name VICON
:units
  mass 1.0
  length 0.45
  angle deg
:documentation
   .ast/.asf automatically generated from VICON data using
   VICON BodyBuilder and BodyLanguage model FoxedUp or BRILLIANT.MOD
:root
   order TX TY TZ RX RY RZ
   axis XYZ
   position 0 0 0  
   orientation 0 0 0 
:bonedata
  begin
     id 1 
     name lhipjoint
     direction 0.528046 -0.759594 0.379717 
     length 2.39752 
     axis 0 0 0  XYZ
  end
  begin
     id 2 
     name lfemur
     direction 0.34202 -0.939693 0  
     length 7.31175  
     axis 0 0 20  XYZ
    dof rx ry rz
    limits (-160.0 20.0)
           (-70.0 70.0)
           (-60.0 70.0)
  end
  begin
     id 3 
     name ltibia
     direction 0.34202 -0.939693 0   
     length 7.52482   
     axis 0 0 20   XYZ
    dof rx
    limits (-10.0 170.0)
  end
  begin
     id 4 
     name lfoot
     direction 0.0675379 -0.185559 0.980309   
     length 2.00961   
     axis -90 7.62852e-016 20   XYZ
    dof rx rz
    limits (-45.0 90.0)
           (-70.0 20.0)
  end
  begin
     id 5 
     name ltoes
     direction 1.5352e-011 -4.22286e-011 1   
     length 1.01383   
     axis -90 7.62852e-016 20   XYZ
    dof rx
    limits (-90.0 20.0)
  end
  begin
     id 6 
     name rhipjoint
     direction -0.510274 -0.769251 0.384544   
     length 2.36742  
     axis 0 0 0  XYZ 
  end
  begin
     id 7 
     name rfemur
     direction -0.34202 -0.939693 0   
     length 7.45325   
     axis 0 0 -20   XYZ
    dof rx ry rz
    limits (-160.0 20.0)
           (-70.0 70.0)
           (-70.0 60.0)
  end
  begin
     id 8 
     name rtibia
     direction -0.34202 -0.939693 0   
     length 7.49587   
     axis 0 0 -20   XYZ
    dof rx
    limits (-10.0 170.0)
 end
 begin
     id 9 
     name rfoot
     direction -0.106475 -0.292536 0.950308   
     length 2.20898  
     axis -90 -7.62852e-016 -20   XYZ
    dof rx rz
    limits (-45.0 90.0)
           (-20.0 70.0)
  end
  begin
     id 10 
     name rtoes
     direction -1.53597e-011 -4.22023e-011 1   
     length 1.10065   
     axis -90 -7.62852e-016 -20   XYZ
    dof rx
    limits (-90.0 20.0)
  end
  begin
     id 11 
     name lowerback
     direction 0.0260024 0.998026 -0.0571652   
     length 2.11214   
     axis 0 0 0   XYZ
    dof rx ry rz
    limits (-20.0 45.0)
           (-30.0 30.0)
           (-30.0 30.0)
  end
  begin
     id 12 
     name upperback
     direction 0.0216202 0.999542 -0.0211766   
     length 2.11689   
     axis 0 0 0   XYZ
    dof rx ry rz
    limits (-20.0 45.0)
           (-30.0 30.0)
           (-30.0 30.0)
  end
  begin
     id 13 
     name thorax
     direction 0.00883312 0.999944 0.00589057   
     length 2.11821   
     axis 0 0 0   XYZ
    dof rx ry rz
    limits (-20.0 45.0)
           (-30.0 30.0)
           (-30.0 30.0)
  end
  begin
     id 14 
     name lowerneck
     direction -0.059386 0.994433 0.0870401   
     length 1.81176   
     axis 0 0 0   XYZ
    dof rx ry rz
    limits (-20.0 45.0)
           (-30.0 30.0)
           (-30.0 30.0)
  end
  begin
     id 15 
     name upperneck
     direction 0.0506457 0.97328 -0.223967   
     length 1.82382   
     axis 0 0 0   XYZ
    dof rx ry rz
    limits (-20.0 45.0)
           (-30.0 30.0)
           (-30.0 30.0)
  end
  begin
     id 16
     name head
     direction 0.0205902 0.996147 -0.0852487  
     length 1.84805  
     axis 0 0 0   XYZ
    dof rx ry rz
    limits (-20.0 45.0)
           (-30.0 30.0)
           (-30.0 30.0)
  end
  begin
     id 17 
     name lclavicle
     direction 0.949493 0.303881 -0.0782325  
     length 3.60584  
     axis 0 0 0   XYZ
    dof ry rz
    limits (-20.0 10.0)
           (0.0 20.0)
  end
  begin
     id 18 
     name lhumerus
     direction 1 -4.48965e-011 1.48782e-027   
     length 4.95681   
     axis 180 -30 -90   XYZ
    dof rx ry rz
    limits (-60.0 90.0)
           (-90.0 90.0)
           (-90.0 90.0)
  end
  begin
     id 19
     name lradius
     direction 1 -4.48952e-011 2.06528e-027   
     length 3.40915   
     axis 180 -30 -90   XYZ
    dof rx
    limits (-10.0 170.0)
  end
  begin
     id 20
     name lwrist
     direction 1 -4.48964e-011 1.28021e-027   
     length 1.70457   
     axis -1.61767e-015 90 90   XYZ
    dof ry
    limits (-180.0 0.0)
 end
  begin
     id 21 
     name lhand
     direction 1 -4.49094e-011 2.54887e-027   
     length 0.616403   
     axis -1.63363e-015 90 90   XYZ
    dof rx rz
    limits (-90.0 90.0)
           (-45.0 45.0)
  end
  begin
     id 22 
     name lfingers
     direction 1 -4.49002e-011 5.11407e-027   
     length 0.49696   
     axis -3.26723e-015 90 90   XYZ
    dof rx
    limits (0.0 90.0)
  end
  begin
     id 23
     name lthumb
     direction 0.707107 -6.34998e-011 0.707107   
     length 0.713539   
     axis -90 45 -2.25915e-014   XYZ
    dof rx rz
    limits (-45.0 45.0)
           (-45.0 45.0)
  end
  begin
     id 24 
     name rclavicle
     direction -0.937751 0.334612 -0.0930482   
     length 3.46287  
     axis 0 0 0   XYZ 
    dof ry rz
    limits (-10.0 20.0)
           (-20.0 0.0)
  end
  begin
     id 25 
     name rhumerus
     direction -1 -4.48962e-011 3.59972e-027  
     length 5.352   
     axis 180 30 90   XYZ
    dof rx ry rz
    limits (-90.0 60.0)
           (-90.0 90.0)
           (-90.0 90.0)
  end
  begin
     id 26 
     name rradius
     direction -1 -4.48987e-011 -3.76925e-027   
     length 3.43721   
     axis 180 30 90   XYZ
    dof rx
    limits (-10.0 170.0)
  end
  begin
     id 27 
     name rwrist
     direction -1 -4.48943e-011 1.28112e-027   
     length 1.7186   
     axis -1.61767e-015 -90 -90   XYZ
    dof ry
    limits (-180.0 0.0)
  end
  begin
     id 28
     name rhand
     direction -1 -4.49027e-011 2.55483e-027   
     length 0.72009   
     axis -1.63363e-015 -90 -90   XYZ
    dof rx rz
    limits (-90.0 90.0)
           (-45.0 45.0)
  end
  begin
     id 29
     name rfingers
     direction -1 -4.48827e-011 5.14506e-027   
     length 0.580555   
     axis -3.26723e-015 -90 -90   XYZ
    dof rx
    limits (0.0 90.0)
  end
  begin
     id 30
     name rthumb
     direction -0.707107 -6.34936e-011 0.707107   
     length 0.833564   
     axis -90 -45 2.25915e-014   XYZ
    dof rx rz
    limits (-45.0 45.0)
           (-45.0 45.0)
  end
:hierarchy
  begin
    root lhipjoint rhipjoint lowerback
    lhipjoint lfemur
    lfemur ltibia
    ltibia lfoot
    lfoot ltoes
    rhipjoint rfemur
    rfemur rtibia
    rtibia rfoot
    rfoot rtoes
    lowerback upperback
    upperback thorax
    thorax lowerneck lclavicle rclavicle
    lowerneck upperneck
    upperneck head
    lclavicle lhumerus
    lhumerus lradius
    lradius lwrist
    lwrist lhand lthumb
    lhand lfingers
    rclavicle rhumerus
    rhumerus rradius
    rradius rwrist
    rwrist rhand rthumb
    rhand rfingers
  end

#!OML:ASF H:\Terrain\Patient Classification 1\Terrain2\Thursday\justin.ASF
:FULLY-SPECIFIED
:DEGREES
273
root 18.9467 17.4027 -23.7657 -1.87062 17.0597 -0.862123
lowerback 5.79306 -1.38685 -3.23739
upperback 2.21161 -1.97494 2.97342
thorax -0.747888 -1.01193 5.01961
lowerneck -11.5764 -3.22254 -9.87655
upperneck 38.3367 -3.74091 4.89271
head 15.8276 -2.28155 3.285
rclavicle -3.61788e-014 5.56597e-015
rhumerus -31.32 -16.4282 -69.2601
rradius 28.6484
rwrist -13.3071
rhand -20.6448 14.2187
rfingers 7.12502
rthumb 5.71731 -15.6842
lclavicle -3.61788e-014 5.56597e-015
lhumerus -29.0148 6.95101 82.5302
lradius 24.6327
lwrist -2.81324
lhand -16.4033 21.6671
lfingers 7.12502
lthumb 9.81106 51.4186
rfemur -13.3481 10.6545 16.3128
rtibia 32.3677
rfoot -19.1328 24.13
rtoes 5.71921
lfemur -7.27219 -7.91615 -15.203
ltibia 24.6008
lfoot -13.8196 -15.0953
ltoes 0.917303
274
root 18.9899 17.4037 -23.7885 -1.82672 16.5673 -0.871933
lowerback 5.93757 -1.34083 -3.11266
upperback 2.19211 -1.91079 2.87686
thorax -0.863586 -0.975689 4.84922
lowerneck -11.6497 -3.2466 -9.59962
upperneck 38.4206 -3.83634 4.83196
head 15.8867 -2.29296 3.19459
rclavicle 1.59028e-015 1.11319e-014
rhumerus -31.8137 -16.4121 -69.5803
rradius 29.1883
rwrist -14.1498
rhand -21.0331 13.5558
rfingers 7.12502
rthumb 5.34234 -16.3568
lclavicle 1.59028e-015 1.11319e-014
lhumerus -28.7448 6.76746 81.9534
lradius 24.5799
lwrist -3.49694
lhand -16.0527 20.8197
lfingers 7.12502
lthumb 10.1493 50.5549
rfemur -13.6724 11.2911 16.2323
rtibia 32.6337
rfoot -18.4767 24.0184
rtoes 7.74344
lfemur -7.16349 -7.15193 -15.2154
ltibia 24.3715
lfoot -13.7298 -15.5878
ltoes 2.22647
275
root 19.0371 17.4041 -23.8084 -1.82183 15.8982 -0.873122
lowerback 5.91397 -1.2699 -2.97575
upperback 2.26331 -1.80965 2.80564
thorax -0.794871 -0.926972 4.68886
lowerneck -11.4814 -3.21953 -9.51929
upperneck 38.2412 -3.87591 4.92278
head 15.7555 -2.28697 3.20747
rclavicle -3.52843e-015 7.95139e-015
rhumerus -32.1861 -16.6547 -69.7414
rradius 29.566
rwrist -14.4613
rhand -20.9857 13.0197
rfingers 7.12502
rthumb 5.38817 -16.8918
lclavicle -3.52843e-015 7.95139e-015
lhumerus -28.3824 6.48581 81.5082
lradius 24.6332
lwrist -3.69701
lhand -15.7764 20.5881
lfingers 7.12502
lthumb 10.4159 50.3101
rfemur -13.9209 12.0744 16.1366
rtibia 32.8469
rfoot -17.887 23.9039
rtoes 9.86856
lfemur -6.97382 -6.56573 -15.3109
ltibia 24.2091
lfoot -13.8613 -15.6204
ltoes 2.57028
276
root 19.0871 17.397 -23.8342 -1.67977 15.3341 -0.590356
lowerback 5.77871 -1.25614 -3.20547
upperback 2.39356 -1.80216 2.81325
thorax -0.57782 -0.932019 4.82032
lowerneck -11.3338 -3.16391 -9.77791
upperneck 37.9199 -3.80801 5.11258
head 15.562 -2.26862 3.33684
rclavicle 7.45443e-015 -1.66979e-014
rhumerus -32.3629 -16.3595 -69.8925
rradius 30.057
rwrist -14.7948
rhand -21.1654 12.7247
rfingers 7.12502
rthumb 5.21465 -17.1912
lclavicle 7.45443e-015 -1.66979e-014
lhumerus -27.9417 6.01212 81.5091
lradius 24.9875
lwrist -3.14921
lhand -15.6778 22.0584
lfingers 7.12502
lthumb 10.511 51.7756
rfemur -14.1262 12.2867 15.6946
rtibia 32.9772
rfoot -17.892 23.8917
rtoes 9.57035
lfemur -6.92232 -6.32021 -15.7784
ltibia 24.1337
lfoot -14.0998 -15.363
ltoes 2.20885
277
root 19.1334 17.3904 -23.862 -1.52841 14.8995 -0.398818
lowerback 5.9161 -1.26256 -3.25695
upperback 2.35806 -1.81726 2.75124
thorax -0.689739 -0.936379 4.79061
lowerneck -11.3622 -3.13851 -9.80759
upperneck 37.851 -3.80357 5.21243
head 15.5359 -2.25894 3.38324
rclavicle 3.47376e-014 -4.77083e-015
rhumerus -32.9624 -15.5414 -70.2763
rradius 30.9114
rwrist -15.7602
rhand -21.4499 12.5952
rfingers 7.12502
rthumb 4.93996 -17.3272
lclavicle 3.47376e-014 -4.77083e-015
lhumerus -27.6894 5.43828 81.308
lradius 25.2875
lwrist -2.75026
lhand -15.5751 23.0169
lfingers 7.12502
lthumb 10.6101 52.729
rfemur -14.3525 12.2513 15.3616
rtibia 33.0639
rfoot -17.9196 23.7638
rtoes 8.6122
lfemur -7.00045 -5.87732 -16.1148
ltibia 24.1206
lfoot -14.3506 -15.4241
ltoes 1.40554
278
root 19.1771 17.3938 -23.8876 -1.49273 14.3299 -0.579842
lowerback 5.82866 -1.23166 -2.79909
upperback 2.50834 -1.75105 2.65888
thorax -0.511365 -0.906257 4.42506
lowerneck -11.6491 -3.14443 -9.73633
upperneck 37.8524 -3.87425 5.37885
head 15.6132 -2.2566 3.43008
rclavicle 1.79403e-014 -2.0276e-014
rhumerus -33.0924 -15.5243 -70.7091
rradius 31.1691
rwrist -16.1509
rhand -21.3855 12.9057
rfingers 7.12502
rthumb 5.0021 -17.0153
lclavicle 1.79403e-014 -2.0276e-014
lhumerus -27.0638 5.42256 80.7182
lradius 25.2711
lwrist -3.16643
lhand -15.1277 22.5004
lfingers 7.12502
lthumb 11.0416 52.19
rfemur -14.6604 12.6017 15.4656
rtibia 33.1661
rfoot -17.5149 23.3197
rtoes 9.17749
lfemur -7.05278 -5.05886 -16.0066
ltibia 24.1146
lfoot -14.6694 -15.6165
ltoes 0.157545
279
root 19.2237 17.3981 -23.9062 -1.42161 13.5949 -0.772143
lowerback 6.1649 -1.16946 -2.22705
upperback 2.26434 -1.64187 2.47814
thorax -0.98399 -0.834743 3.92029
lowerneck -11.6767 -3.0643 -9.44672
upperneck 38.114 -3.85723 5.40253
head 15.7395 -2.21251 3.40044
rclavicle -1.91827e-014 3.97569e-016
rhumerus -33.6697 -15.703 -71.0462
rradius 31.1502
rwrist -16.1699
rhand -21.2496 12.8314
rfingers 7.12502
rthumb 5.13332 -17.0865
lclavicle -1.91827e-014 3.97569e-016
lhumerus -27.1854 5.0764 79.9883
lradius 25.5171
lwrist -3.24708
lhand -14.71 21.814
lfingers 7.12502
lthumb 11.4444 51.4817
rfemur -14.9836 13.0927 15.5587
rtibia 33.3052
rfoot -17.2282 22.9677
rtoes 10.1105
lfemur -7.04194 -4.4442 -15.9071
ltibia 24.0586
lfoot -14.9622 -15.4142
ltoes -0.572919
280
root 19.2682 17.3986 -23.9217 -1.27809 12.903 -0.598808
lowerback 6.19045 -1.0777 -2.47843
upperback 2.22309 -1.53395 2.54953
thorax -1.04058 -0.780484 4.13133
lowerneck -11.771 -3.0149 -9.3546
upperneck 38.2212 -3.68506 5.08296
head 15.7892 -2.17154 3.27515
rclavicle -2.05245e-014 -1.07344e-014
rhumerus -33.9716 -15.1621 -71.2358
rradius 31.4233
rwrist -16.8411
rhand -21.4854 12.1673
rfingers 7.12502
rthumb 4.9057 -17.7559
lclavicle -2.05245e-014 -1.07344e-014
lhumerus -27.0715 5.02484 79.7811
lradius 25.8466
lwrist -3.19543
lhand -14.3315 21.77
lfingers 7.12502
lthumb 11.8094 51.417
rfemur -15.2656 13.3309 15.2603
rtibia 33.4864
rfoot -16.9474 22.9325
rtoes 10.9562
lfemur -6.96192 -4.07829 -16.2219
ltibia 23.9728
lfoot -15.2866 -15.0179
ltoes -1.47119
281
root 19.3105 17.3963 -23.9425 -1.16128 12.2764 0.0487302
lowerback 6.17624 -1.05696 -3.19045
upperback 2.42359 -1.54935 2.52976
thorax -0.804127 -0.799663 4.51203
lowerneck -12.2022 -2.90765 -9.5057
upperneck 38.2563 -3.36533 4.88735
head 15.8802 -2.08405 3.26925
rclavicle -3.79679e-014 2.38542e-014
rhumerus -33.8604 -14.6078 -71.4473
rradius 31.3472
rwrist -16.6768
rhand -21.2729 13.155
rfingers 7.12502
rthumb 5.11084 -16.7634
lclavicle -3.79679e-014 2.38542e-014
lhumerus -26.5886 5.59255 79.5263
lradius 26.0146
lwrist -3.27613
lhand -14.138 21.8669
lfingers 7.12502
lthumb 11.9961 51.5031
rfemur -15.4861 13.455 14.4578
rtibia 33.7211
rfoot -16.3538 23.1224
rtoes 12.7104
lfemur -6.75521 -3.87363 -17.0811
ltibia 23.8226
lfoot -15.6503 -14.453
ltoes -2.12309
282
root 19.3568 17.395 -23.9637 -1.04263 11.6044 0.41013
lowerback 6.05319 -0.991719 -3.35567
upperback 2.6534 -1.47061 2.43022
thorax -0.50455 -0.77178 4.49038
lowerneck -12.559 -2.85557 -9.61165
upperneck 38.1246 -3.22695 4.90419
head 15.8882 -2.03532 3.31319
rclavicle -3.3197e-014 2.62396e-014
rhumerus -33.7691 -14.316 -71.7912
rradius 31.4976
rwrist -16.2272
rhand -20.9258 13.0878
rfingers 7.12502
rthumb 5.446 -16.8223
lclavicle -3.3197e-014 2.62396e-014
lhumerus -25.9772 5.75602 79.2831
lradius 26.1403
lwrist -2.95352
lhand -14.6816 22.0234
lfingers 7.12502
lthumb 11.4719 51.6895
rfemur -15.8125 13.541 13.9165
rtibia 34.006
rfoot -16.0012 23.4103
rtoes 14.1832
lfemur -6.60428 -3.61244 -17.6366
ltibia 23.6024
lfoot -15.9207 -13.8454
ltoes -2.54212
